<svg xmlns="http://www.w3.org/2000/svg" xmlns:xlink="http://www.w3.org/1999/xlink" width="512" height="512" viewBox="0 0 512 512"><defs><filter id="c" width="102.4%" height="102.4%" x="-1.2%" y="-1.2%" filterUnits="objectBoundingBox"><feGaussianBlur in="SourceAlpha" result="shadowBlurInner1" stdDeviation="4"/><feOffset dy="-2" in="shadowBlurInner1" result="shadowOffsetInner1"/><feComposite in="shadowOffsetInner1" in2="SourceAlpha" k2="-1" k3="1" operator="arithmetic" result="shadowInnerInner1"/><feColorMatrix in="shadowInnerInner1" result="shadowMatrixInner1" values="0 0 0 0 0.941176471 0 0 0 0 0.317647059 0 0 0 0 0.219607843 0 0 0 1 0"/><feGaussianBlur in="SourceAlpha" result="shadowBlurInner2" stdDeviation="4"/><feOffset dy="-2" in="shadowBlurInner2" result="shadowOffsetInner2"/><feComposite in="shadowOffsetInner2" in2="SourceAlpha" k2="-1" k3="1" operator="arithmetic" result="shadowInnerInner2"/><feColorMatrix in="shadowInnerInner2" result="shadowMatrixInner2" values="0 0 0 0 0.968627451 0 0 0 0 0.560784314 0 0 0 0 0.498039216 0 0 0 1 0"/><feMerge><feMergeNode in="shadowMatrixInner1"/><feMergeNode in="shadowMatrixInner2"/></feMerge></filter><filter id="e" width="107.9%" height="107.2%" x="-4%" y="-3.6%" filterUnits="objectBoundingBox"><feOffset in="SourceAlpha" result="shadowOffsetOuter1"/><feGaussianBlur in="shadowOffsetOuter1" result="shadowBlurOuter1" stdDeviation="2"/><feColorMatrix in="shadowBlurOuter1" values="0 0 0 0 0.0595930146 0 0 0 0 0.165071749 0 0 0 0 0.406901042 0 0 0 0.35546875 0"/></filter><filter id="g" width="111.9%" height="110.8%" x="-6%" y="-5.4%" filterUnits="objectBoundingBox"><feGaussianBlur in="SourceAlpha" result="shadowBlurInner1" stdDeviation="4"/><feOffset dx="2" dy="2" in="shadowBlurInner1" result="shadowOffsetInner1"/><feComposite in="shadowOffsetInner1" in2="SourceAlpha" k2="-1" k3="1" operator="arithmetic" result="shadowInnerInner1"/><feColorMatrix in="shadowInnerInner1" values="0 0 0 0 1 0 0 0 0 1 0 0 0 0 1 0 0 0 1 0"/></filter><linearGradient id="b" x1="79.527%" x2="-4.415%" y1="33.015%" y2="103.78%"><stop offset="0%" stop-color="#F78F7F"/><stop offset="100%" stop-color="#F05138"/></linearGradient><linearGradient id="f" x1="87.905%" x2="13.314%" y1="7.682%" y2="95.088%"><stop offset="0%" stop-color="#CCD0F0"/><stop offset="100%" stop-color="#EDF1FE"/></linearGradient><rect id="a" width="410" height="410" x="0" y="0" rx="95"/><path id="d" d="M136.461687,288 C140.032669,288 142.923427,285.208516 142.923427,281.654617 L142.923427,234.61266 C145.048986,233.682166 153.041122,230.635966 165.539471,230.635966 C196.997823,230.635966 216.723023,245.950138 246.650978,245.950138 C259.914177,245.950138 264.845434,244.511944 271.30726,241.635555 C277.174445,239.012149 281,234.61266 281,226.829082 L281,140.952149 C281,136.383283 277.089124,133.760484 272.157867,133.760484 C267.991896,133.760484 260.169272,137.31395 245.545276,137.31395 C215.618191,137.31395 195.97753,122 164.434117,122 C151.170657,122 146.154253,123.438328 139.6926,126.314985 C133.826025,128.937828 130,133.337429 130,141.036708 L130,281.654617 C130,285.123611 132.975783,288 136.461687,288 Z"/></defs><g fill="none" fill-rule="evenodd" transform="translate(51 51)"><use xlink:href="#a" fill="url(#b)"/><use xlink:href="#a" fill="#000" filter="url(#c)"/><g fill-rule="nonzero"><use xlink:href="#d" fill="#000" filter="url(#e)"/><use xlink:href="#d" fill="url(#f)"/><use xlink:href="#d" fill="#000" filter="url(#g)"/></g></g></svg>